<?xml version="1.0" encoding="utf-8"?>
<!-- Generator: Adobe Illustrator 21.1.0, SVG Export Plug-In . SVG Version: 6.00 Build 0)  -->
<svg version="1.1" id="Capa_1" xmlns="http://www.w3.org/2000/svg" xmlns:xlink="http://www.w3.org/1999/xlink" x="0px" y="0px"
	 viewBox="0 0 510.2 510.2" style="enable-background:new 0 0 510.2 510.2;" xml:space="preserve">
<style type="text/css">
	.st0{fill:#322153;}
</style>
<g>
	<path class="st0" d="M430.5,79.7c-10.5-10.5-26.2-10.5-36.7,0L255.1,218.5L116.4,79.7c-10.5-10.5-26.2-10.5-36.7,0
		s-10.5,26.2,0,36.6L218.4,255L79.7,393.9c-10.5,10.5-10.5,26.2,0,36.7c5.2,5.2,13.1,7.9,18.3,7.9s13.1-2.6,18.3-7.9L255,291.9
		l138.9,138.6c5.2,5.2,13.1,7.9,18.3,7.9c5.2,0,13.1-2.6,18.3-7.9c10.5-10.5,10.5-26.2,0-36.7L291.8,255.1l138.7-138.7
		C441,105.9,441,90.2,430.5,79.7z"/>
</g>
</svg>
