<?xml version="1.0" encoding="utf-8"?>
<!-- Generator: Adobe Illustrator 21.1.0, SVG Export Plug-In . SVG Version: 6.00 Build 0)  -->
<svg version="1.1" id="Capa_1" xmlns="http://www.w3.org/2000/svg" xmlns:xlink="http://www.w3.org/1999/xlink" x="0px" y="0px"
	 viewBox="0 0 510.2 510.2" style="enable-background:new 0 0 510.2 510.2;" xml:space="preserve">
<style type="text/css">
	.st0{fill:#322153;}
</style>
<g>
	<path class="st0" d="M503.2,255.1c0-14.8-11.1-26-26-26L281,229.2L281.1,33c0-14.8-11.1-26-26-26s-26,11.1-25.9,25.9v196.2
		L33,229.2c-14.8,0-26,11.1-26,26c0,7.4,3.7,14.8,7.4,18.5c3.7,3.7,11.1,7.4,18.5,7.4h196.2l0.2,196.2c0,7.4,3.7,14.8,7.4,18.5
		c3.7,3.7,11.1,7.4,18.5,7.4c14.8,0,26-11.1,26-26V281.1h196.2C492.1,281.1,503.2,270,503.2,255.1z"/>
</g>
</svg>
