<?xml version="1.0" encoding="utf-8"?>
<!-- Generator: Adobe Illustrator 21.1.0, SVG Export Plug-In . SVG Version: 6.00 Build 0)  -->
<svg version="1.1" id="Capa_1" xmlns="http://www.w3.org/2000/svg" xmlns:xlink="http://www.w3.org/1999/xlink" x="0px" y="0px"
	 viewBox="0 0 488 488" style="enable-background:new 0 0 488 488;" xml:space="preserve">
<style type="text/css">
	.st0{fill:#322153;}
	.st1{fill:#FFFFFF;}
</style>
<g>
	<path class="st0" d="M452,204h-44.8c-4-16.8-10.4-32-19.2-47.2l32-32c9.6-9.6,9.6-24.8,0-33.6l-22.4-22.4c-9.6-9.6-24.8-9.6-33.6,0
		l-32,32c-14.4-8.8-30.4-15.2-47.2-19.2V36c0-13.6-10.4-24-24-24h-32c-13.6,0-24,10.4-24,24v44.8c-16.8,4-32,10.4-47.2,19.2l-32-32
		c-9.6-9.6-24.8-9.6-33.6,0L69.6,90.4c-9.6,9.6-9.6,24.8,0,33.6l32,32c-8.8,14.4-15.2,30.4-19.2,47.2H36c-13.6,0-24,10.4-24,24v32
		c0,13.6,10.4,24,24,24h44.8c4,16.8,10.4,32,19.2,47.2l-32,32c-4.8,4.8-7.2,10.4-7.2,16.8S63.2,392,68,396l22.4,22.4
		c9.6,9.6,24.8,9.6,33.6,0l32-32c14.4,8.8,30.4,15.2,47.2,19.2V452c0,13.6,10.4,24,24,24h32c13.6,0,24-10.4,24-24v-44.8
		c16.8-4,32-10.4,47.2-19.2l32,32c9.6,9.6,24.8,9.6,33.6,0l22.4-22.4c4.8-4.8,7.2-10.4,7.2-16.8s-2.4-12.8-7.2-16.8l-32-32
		c8.8-14.4,15.2-30.4,19.2-47.2H452c13.6,0,24-10.4,24-24v-32C476,214.4,465.6,204,452,204z"/>
	<path class="st1" d="M244,138.3c-58.5,0-105.7,47.1-105.7,105.7S185.5,349.7,244,349.7S349.7,302.5,349.7,244
		S302.5,138.3,244,138.3z"/>
</g>
</svg>
